# xmcd
#
# Track frame offsets:
#	150
#	20934
#	40153
#	58751
#	73354
#	88686
#	105421
#	121481
#	138000
#	156112
#	172064
#	193064
#	205993
#	222188
#	235279
#	252014
#	265861
#	284675
#	300870
#	314933
#
# Disc length: 4402 seconds
#
# Revision: 1
# Processed by: cddbd v1.4PL0 Copyright (c) Steve Scherf et al.
# Submitted via: EasyCDDAExtractor 5.1.0
#
DISCID=33113014
DTITLE=Various Artist - As Melhores
DYEAR=2003
DGENRE=Country
TTITLE0=Por Um Minuto
TTITLE1=Meu Jeito de Sentir
TTITLE2=Fruto Especial
TTITLE3=Favo de Mel
TTITLE4=Bruno e Marrone - Dormi na Praça
TTITLE5=Parabéns pro Nosso Amor
TTITLE6=Preciso Amar de Novo
TTITLE7=Vida Vazia
TTITLE8=Quem Manda é o Coração
TTITLE9=Acorrentado em Você
TTITLE10=Passou da Conta
TTITLE11=É Nisso que Dá
TTITLE12=Como Ficar sem Você
TTITLE13=Alçapão
TTITLE14=Bruno e Marrone - Como Eu Te Amo
TTITLE15=Apenas um Sorriso
TTITLE16=Agarrada em Mim
TTITLE17=Te Amo e Não Te Quero
TTITLE18=Sozinho na Noite
TTITLE19=Tchau Amor
EXTD=
EXTT0=
EXTT1=
EXTT2=
EXTT3=
EXTT4=
EXTT5=
EXTT6=
EXTT7=
EXTT8=
EXTT9=
EXTT10=
EXTT11=
EXTT12=
EXTT13=
EXTT14=
EXTT15=
EXTT16=
EXTT17=
EXTT18=
EXTT19=
PLAYORDER=
